<?xml version="1.0" standalone="no"?>
<!DOCTYPE svg PUBLIC "-//W3C//DTD SVG 20010904//EN"
 "http://www.w3.org/TR/2001/REC-SVG-20010904/DTD/svg10.dtd">
<svg version="1.0" xmlns="http://www.w3.org/2000/svg"
 width="300pt" height="300pt" viewBox="0 0 300 300"
 preserveAspectRatio="xMidYMid meet">
  <style id="style2">
    .st0{fill:red}
  </style>
  <path d="M104.26 174.24l15.7-33.8h8l2.2 14.3 15.5-14.3h8l-15.7 33.8h-7.4l10.3-22.1-16.2 14.4h-.2l-2.7-14.3-10.2 21.9h-7.3zm73.1-4.5c-5 3.4-10.1 5.1-15.2 5.1s-8.6-1.7-10.4-5.1c-1.8-3.4-1.6-7.5.7-12.4s5.9-9 10.9-12.4c5-3.4 10.1-5.1 15.2-5.1s8.6 1.7 10.4 5.1c1.8 3.4 1.6 7.5-.7 12.4-2.3 4.8-5.9 9-10.9 12.4zm-17.8-4.9c1 2.1 2.9 3.1 5.9 3.1 3 0 5.8-1 8.7-3.1 2.8-2 5-4.6 6.4-7.6 1.4-3 1.6-5.5.6-7.5-1-2.1-2.9-3.1-5.9-3.1-3 0-5.9 1-8.7 3.1-2.8 2-5 4.6-6.4 7.6-1.4 2.9-1.6 5.5-.6 7.5zm33.8 9.4l12.5-26.9h-10.3l3.2-6.9h27.9l-3.2 6.9h-10.3l-12.5 26.9zm53.2-4.5c-5 3.4-10.1 5.1-15.2 5.1s-8.6-1.7-10.4-5.1c-1.8-3.4-1.6-7.5.7-12.4s5.9-9 10.9-12.4c5-3.4 10.1-5.1 15.2-5.1s8.6 1.7 10.4 5.1c1.8 3.4 1.6 7.5-.7 12.4-2.3 4.8-5.9 9-10.9 12.4zm-17.8-4.9c1 2.1 2.9 3.1 5.9 3.1 3 0 5.8-1 8.7-3.1 2.8-2 5-4.6 6.4-7.6 1.4-3 1.6-5.5.6-7.5-1-2.1-2.9-3.1-5.9-3.1-3 0-5.9 1-8.7 3.1-2.8 2-5 4.6-6.4 7.6-1.4 2.9-1.6 5.5-.6 7.5zm-98.3 45.9c-3.3 0-5.4-1-6.5-3.1-1.1-2.1-.9-4.7.6-7.9 1.4-3 3.6-5.6 6.7-7.8 3.1-2.1 6.2-3.2 9.3-3.2 1.8 0 3.2.2 4.2.7 1 .5 1.9 1.2 2.6 2.2l-3.7 2.8a5.1 5.1 0 00-1.9-1.7c-.7-.4-1.7-.6-3-.6-1.9 0-3.9.7-5.9 2.2-2 1.5-3.5 3.3-4.5 5.3-1 2.2-1.2 4-.5 5.4.7 1.4 2.1 2.1 4.2 2.1 2 0 3.9-.5 5.9-1.6l1.8-4h-5.4l1.5-3.2h9l-4.1 8.9c-3.5 2.4-6.9 3.5-10.3 3.5zm16.8-.4l3.9-8.4-2.4-12.9h4.4l1.6 9.4 10.4-9.4h4.3l-14.3 12.8-3.9 8.5zm13 0l9.9-21.2h4l1.8 10 11.1-10h4l-9.9 21.2h-3.8l7.1-15.2-11.3 10h-.1l-2-9.9-7.1 15.2h-3.7zm24.4 0l9.9-21.2h3.7l-5 10.7 15-10.7h4.6l-13 9.1 3.6 12.1h-4.5l-2.8-9.6-4.9 3.4-2.9 6.2zm20.8 0l9.9-21.2h3.7l-4.1 8.8h10.1l4.1-8.8h3.7l-9.9 21.2h-3.7l4.2-8.9h-10.1l-4.2 8.9zm18.7 0l19.3-21.4h3.4l-.6 21.4h-3.9l.2-5.1h-10l-4.6 5.1zm11.3-8.4h7.3l.3-8.5zm12 8.4l9.9-21.2h3.4l4.5 14.7 6.8-14.7h3.7l-9.9 21.2h-3.1l-4.7-15.1-7 15.1zm19.7 0l19.3-21.4h3.4l-.6 21.4h-3.9l.2-5.1h-10l-4.6 5.1zm11.2-8.4h7.3l.3-8.5z" id="path4"/>
  <path class="st0" d="M70.76 105.24l-12.6-20.3-31.2 20.4 12.1 20.4zm44.5 90.8l-7-10.7-17.5 10.7 6.8 10.9zm-72.9-14.6h51.3l22.5-48.3h-51.3zm90-83.3l-16.2 35h39.4l16.3-35z" id="path6" fill="red"/>
  <path class="st0" d="M32.26 77.54l-25.9 55.6h58.6l25.8-55.6zm29.1 48.3h-44l19.1-41h44zm32.3 55.7l-13.6 29.2h32.2l13.6-29.2zm16.6 25.5h-24.7l10.1-21.7h24.7z" id="path8" fill="red"/>
</svg>
