<svg version="1.0" id="Layer_1" xmlns="http://www.w3.org/2000/svg" x="0" y="0" viewBox="0 0 283.5 133.2" xml:space="preserve"><style>.st0{fill:red}</style><path d="M97.9 96.7l15.7-33.8h8l2.2 14.3 15.5-14.3h8l-15.7 33.8h-7.4l10.3-22.1L118.3 89h-.2l-2.7-14.3-10.2 21.9h-7.3zM171 92.2c-5 3.4-10.1 5.1-15.2 5.1s-8.6-1.7-10.4-5.1c-1.8-3.4-1.6-7.5.7-12.4s5.9-9 10.9-12.4c5-3.4 10.1-5.1 15.2-5.1s8.6 1.7 10.4 5.1c1.8 3.4 1.6 7.5-.7 12.4-2.3 4.8-5.9 9-10.9 12.4zm-17.8-4.9c1 2.1 2.9 3.1 5.9 3.1 3 0 5.8-1 8.7-3.1 2.8-2 5-4.6 6.4-7.6 1.4-3 1.6-5.5.6-7.5-1-2.1-2.9-3.1-5.9-3.1-3 0-5.9 1-8.7 3.1-2.8 2-5 4.6-6.4 7.6-1.4 2.9-1.6 5.5-.6 7.5zM187 96.7l12.5-26.9h-10.3l3.2-6.9h27.9l-3.2 6.9h-10.3l-12.5 26.9H187zM240.2 92.2c-5 3.4-10.1 5.1-15.2 5.1s-8.6-1.7-10.4-5.1c-1.8-3.4-1.6-7.5.7-12.4s5.9-9 10.9-12.4c5-3.4 10.1-5.1 15.2-5.1s8.6 1.7 10.4 5.1c1.8 3.4 1.6 7.5-.7 12.4-2.3 4.8-5.9 9-10.9 12.4zm-17.8-4.9c1 2.1 2.9 3.1 5.9 3.1 3 0 5.8-1 8.7-3.1 2.8-2 5-4.6 6.4-7.6 1.4-3 1.6-5.5.6-7.5-1-2.1-2.9-3.1-5.9-3.1-3 0-5.9 1-8.7 3.1-2.8 2-5 4.6-6.4 7.6-1.4 2.9-1.6 5.5-.6 7.5zM124.1 133.2c-3.3 0-5.4-1-6.5-3.1-1.1-2.1-.9-4.7.6-7.9 1.4-3 3.6-5.6 6.7-7.8 3.1-2.1 6.2-3.2 9.3-3.2 1.8 0 3.2.2 4.2.7 1 .5 1.9 1.2 2.6 2.2l-3.7 2.8c-.5-.8-1.2-1.3-1.9-1.7-.7-.4-1.7-.6-3-.6-1.9 0-3.9.7-5.9 2.2-2 1.5-3.5 3.3-4.5 5.3-1 2.2-1.2 4-.5 5.4.7 1.4 2.1 2.1 4.2 2.1 2 0 3.9-.5 5.9-1.6l1.8-4H128l1.5-3.2h9l-4.1 8.9c-3.5 2.4-6.9 3.5-10.3 3.5zM140.9 132.8l3.9-8.4-2.4-12.9h4.4l1.6 9.4 10.4-9.4h4.3l-14.3 12.8-3.9 8.5h-4zM153.9 132.8l9.9-21.2h4l1.8 10 11.1-10h4l-9.9 21.2H171l7.1-15.2-11.3 10h-.1l-2-9.9-7.1 15.2h-3.7zM178.3 132.8l9.9-21.2h3.7l-5 10.7 15-10.7h4.6l-13 9.1 3.6 12.1h-4.5l-2.8-9.6-4.9 3.4-2.9 6.2h-3.7zM199.1 132.8l9.9-21.2h3.7l-4.1 8.8h10.1l4.1-8.8h3.7l-9.9 21.2h-3.7l4.2-8.9H207l-4.2 8.9h-3.7zM217.8 132.8l19.3-21.4h3.4l-.6 21.4H236l.2-5.1h-10l-4.6 5.1h-3.8zm11.3-8.4h7.3l.3-8.5-7.6 8.5zM241.1 132.8l9.9-21.2h3.4l4.5 14.7 6.8-14.7h3.7l-9.9 21.2h-3.1l-4.7-15.1-7 15.1h-3.6zM260.8 132.8l19.3-21.4h3.4l-.6 21.4H279l.2-5.1h-10l-4.6 5.1h-3.8zm11.2-8.4h7.3l.3-8.5-7.6 8.5z"/><path class="st0" d="M64.4 27.7L51.8 7.4 20.6 27.8l12.1 20.4zM108.9 118.5l-7-10.7-17.5 10.7 6.8 10.9zM36 103.9h51.3l22.5-48.3H58.5zM126 20.6l-16.2 35h39.4l16.3-35z"/><path class="st0" d="M25.9 0L0 55.6H58.6L84.4 0H25.9zM55 48.3H11l19.1-41h44L55 48.3zM87.3 104l-13.6 29.2h32.2l13.6-29.2H87.3zm16.6 25.5H79.2l10.1-21.7H114l-10.1 21.7z"/></svg>