<?xml version="1.0" standalone="no"?>
<!DOCTYPE svg PUBLIC "-//W3C//DTD SVG 20010904//EN"
 "http://www.w3.org/TR/2001/REC-SVG-20010904/DTD/svg10.dtd">
<svg version="1.0" xmlns="http://www.w3.org/2000/svg"
 width="1136.000000pt" height="1136.000000pt" viewBox="0 0 1136.000000 1136.000000"
 preserveAspectRatio="xMidYMid meet">
<metadata>
Created by potrace 1.11, written by Peter Selinger 2001-2013
</metadata>
<g transform="translate(0.000000,1136.000000) scale(0.100000,-0.100000)"
fill="#000000" stroke="none">
<path d="M1030 8340 c0 -5 -21 -54 -46 -107 -76 -161 -110 -234 -144 -308 -18
-38 -49 -106 -70 -150 -21 -44 -54 -114 -73 -155 -19 -41 -50 -109 -69 -150
-136 -290 -177 -379 -258 -555 -29 -62 -103 -219 -148 -315 -14 -30 -27 -57
-27 -60 -1 -3 -21 -45 -45 -95 -24 -49 -44 -92 -44 -95 -1 -3 -14 -32 -30 -64
-15 -32 -37 -80 -49 -105 -12 -25 -23 -49 -24 -52 -2 -3 31 -6 74 -7 43 0 80
-2 83 -3 3 -1 10 0 15 1 11 3 137 2 145 -1 3 -1 10 0 15 1 11 3 137 2 145 -1
3 -1 10 0 15 1 11 3 137 2 145 -1 3 -1 10 0 15 1 11 3 137 2 145 -1 3 -1 10 0
15 1 11 3 137 2 145 -1 3 -1 10 0 15 1 11 3 137 2 145 -1 3 -1 10 0 15 1 11 3
137 2 145 -1 3 -1 10 0 15 1 11 3 137 2 145 -1 3 -1 10 0 15 1 11 3 137 2 145
-1 3 -1 10 0 15 1 11 3 137 2 145 -1 3 -1 10 0 15 1 11 3 137 2 145 -1 3 -1
10 0 15 1 20 5 136 2 142 -3 3 -4 13 -3 22 2 17 8 78 7 88 -2 3 -3 16 -2 29 3
16 6 24 6 24 -1 0 -6 7 -6 18 -1 18 9 68 9 78 0 3 -3 -14 -46 -36 -94 -23 -49
-55 -116 -70 -149 -64 -135 -125 -264 -155 -330 -71 -155 -90 -194 -136 -294
-27 -57 -49 -105 -49 -106 0 -2 -34 -75 -76 -162 -42 -87 -77 -162 -79 -168
-1 -5 -22 -53 -47 -105 -43 -90 -64 -135 -145 -310 -19 -41 -48 -103 -64 -136
-16 -34 -29 -66 -29 -71 0 -4 455 -8 1025 -8 l1024 0 37 80 c34 74 75 161 144
310 15 33 51 109 79 168 28 60 51 110 51 112 0 4 126 270 150 318 11 22 20 45
20 53 0 8 4 14 10 14 5 0 9 3 8 8 -2 7 7 28 88 199 24 51 57 122 74 158 54
118 87 189 132 285 81 173 101 220 95 227 -4 3 -98 5 -209 4 -112 0 -212 -1
-223 -1 -11 0 -85 0 -165 0 -80 0 -152 0 -160 0 -8 0 -80 0 -160 0 -80 0 -152
0 -160 0 -8 0 -80 0 -160 0 -80 0 -152 0 -160 0 -8 0 -80 0 -160 0 -172 0
-140 0 -327 1 -150 2 -151 2 -143 23 4 11 27 62 50 111 23 50 50 110 62 135
11 25 24 52 29 60 5 8 12 22 16 30 16 39 222 484 293 635 48 102 83 178 85
185 0 3 15 34 32 70 57 119 123 262 123 265 0 2 27 61 61 132 33 70 70 148 81
173 11 25 33 72 48 105 76 162 123 262 131 283 l9 22 -1175 0 c-763 0 -1175
-3 -1175 -10z m1030 -290 c0 -4 -37 -31 -82 -61 -46 -29 -189 -122 -318 -207
-129 -85 -295 -193 -368 -241 -72 -47 -205 -134 -295 -193 -89 -58 -163 -105
-165 -103 -3 3 19 51 172 378 25 53 45 98 44 100 -1 1 5 16 15 32 9 17 45 91
81 166 l64 136 426 0 c234 0 426 -3 426 -7z m862 -94 c-24 -56 -49 -105 -53
-110 -5 -6 -9 -18 -9 -28 0 -10 -4 -18 -10 -18 -5 0 -10 -4 -10 -9 0 -5 -17
-47 -39 -93 -21 -45 -50 -108 -64 -139 -14 -30 -43 -93 -65 -140 -22 -46 -52
-111 -67 -144 -16 -33 -48 -103 -73 -155 -24 -52 -44 -97 -44 -100 -1 -3 -23
-49 -49 -102 -27 -53 -49 -99 -49 -102 0 -2 -25 -56 -55 -121 -30 -64 -55
-120 -55 -126 0 -5 -5 -9 -11 -9 -5 0 -8 -3 -6 -7 3 -5 -10 -37 -27 -73 l-32
-65 -875 -1 c-481 0 -877 1 -881 3 -3 2 7 31 24 66 17 34 44 91 60 126 45 98
96 208 138 296 45 96 94 201 127 273 20 45 26 52 38 42 8 -7 15 -16 15 -21 0
-4 18 -38 41 -76 22 -37 45 -75 49 -83 71 -121 136 -229 148 -242 8 -10 11
-18 7 -18 -4 0 -1 -8 7 -17 8 -10 54 -83 101 -163 97 -165 116 -191 123 -172
3 6 9 12 14 12 4 0 52 29 105 65 54 36 99 65 101 65 2 0 27 16 54 35 27 19 52
35 55 35 3 0 11 5 18 10 16 14 247 164 277 180 13 7 29 17 34 22 23 20 178
118 187 118 5 0 9 4 9 9 0 5 14 14 30 21 17 7 30 16 30 21 0 5 4 9 9 9 6 0 83
47 171 105 l162 106 -18 27 c-23 35 -106 170 -125 202 -8 14 -17 27 -20 30 -3
3 -19 28 -34 55 -16 28 -32 52 -35 55 -3 3 -11 15 -17 28 -7 12 -19 32 -25 45
-7 12 -15 24 -18 27 -3 3 -26 39 -51 80 -25 41 -73 118 -106 171 l-60 96 447
0 447 0 -45 -101z"/>
<path d="M5043 7512 c-7 -7 -13 -17 -13 -22 0 -8 -18 -47 -117 -259 -55 -117
-96 -206 -98 -211 0 -3 -18 -41 -39 -85 -21 -44 -45 -98 -53 -120 -9 -22 -25
-52 -35 -67 -10 -14 -18 -31 -18 -38 0 -6 -11 -31 -25 -56 -13 -24 -23 -44
-21 -44 3 0 -9 -28 -26 -62 -17 -35 -60 -126 -95 -203 -36 -77 -72 -155 -80
-172 -21 -44 -12 -66 21 -53 16 6 27 6 31 -1 4 -5 11 -6 17 -3 10 6 133 9 148
3 3 -1 10 0 15 1 11 3 137 2 145 -1 3 -1 10 0 15 1 11 3 137 2 145 -1 3 -1 10
0 15 1 25 6 203 3 213 -4 7 -4 12 -3 12 1 0 5 15 8 33 6 17 -2 39 -4 47 -3 8
0 29 0 45 -1 17 -1 35 -1 40 0 56 5 295 2 304 -3 6 -4 11 -3 11 1 0 5 15 8 33
6 17 -2 39 -4 47 -3 8 0 29 0 45 -1 17 -1 37 0 45 0 8 1 38 1 65 1 28 0 55 3
60 7 6 5 62 118 124 253 63 135 134 288 158 340 25 52 58 123 74 157 16 34 29
67 29 72 0 6 5 11 10 11 6 0 10 6 10 14 0 8 34 85 75 171 41 86 75 158 75 161
0 2 18 40 39 84 22 44 37 80 33 80 -4 0 -2 4 5 8 6 4 13 16 15 27 3 19 -6 19
-781 20 -639 0 -787 -2 -798 -13z"/>
<path d="M6908 5856 c-1 -2 -41 -6 -88 -10 -47 -3 -96 -9 -110 -12 -61 -15
-153 -45 -202 -65 -51 -22 -231 -126 -266 -154 -231 -186 -321 -304 -427 -560
-7 -16 -16 -43 -19 -60 -4 -16 -9 -41 -12 -55 -9 -42 -5 -150 7 -193 38 -142
133 -236 278 -276 142 -39 357 -20 528 48 230 90 466 276 600 472 98 142 165
321 165 442 1 98 -6 130 -41 202 -62 126 -169 193 -336 211 -27 3 -55 7 -62 9
-6 2 -13 2 -15 1z m-27 -292 c8 -4 19 -9 26 -10 49 -8 112 -106 119 -187 8
-96 -42 -231 -128 -346 -54 -72 -156 -166 -207 -193 -14 -7 -28 -16 -31 -19
-10 -13 -117 -57 -169 -69 -120 -28 -245 -9 -305 47 -32 29 -62 90 -69 141
-19 122 68 307 209 448 36 35 66 64 68 64 2 0 28 16 57 36 66 45 128 73 194
89 56 14 214 13 236 -1z"/>
<path d="M9627 5854 c-1 -1 -30 -5 -64 -8 -35 -4 -102 -18 -150 -32 -87 -25
-275 -109 -281 -125 -2 -5 -8 -9 -14 -9 -5 0 -48 -27 -94 -61 -270 -195 -458
-491 -469 -741 -7 -132 37 -246 125 -326 30 -27 103 -66 145 -77 17 -5 37 -10
45 -13 8 -2 72 -6 141 -7 126 -2 182 5 294 41 96 31 205 83 289 138 38 25 70
46 72 46 8 0 91 77 168 155 117 120 126 129 126 139 0 4 9 21 20 36 42 59 90
153 115 227 35 99 36 104 40 192 5 124 -31 224 -110 306 -36 37 -134 88 -190
101 -27 5 -204 21 -208 18z m49 -298 c70 -36 125 -122 126 -196 0 -53 -21
-150 -43 -190 -10 -19 -25 -50 -34 -69 -9 -19 -23 -40 -31 -48 -8 -8 -14 -18
-14 -22 0 -9 -126 -137 -166 -169 -49 -39 -146 -89 -213 -112 -73 -24 -192
-29 -259 -11 -82 23 -157 127 -156 216 1 41 16 120 26 133 6 6 8 12 4 12 -13
0 75 154 116 203 55 66 63 74 123 122 28 22 52 43 53 48 2 4 8 7 14 7 5 0 22
8 36 18 34 23 119 59 156 66 16 3 31 7 33 10 12 12 200 -2 229 -18z"/>
<path d="M4512 5743 c-22 -49 -60 -131 -85 -183 -24 -52 -53 -115 -65 -140
-20 -45 -75 -163 -139 -300 -19 -41 -44 -93 -56 -115 -12 -22 -20 -40 -19 -40
3 0 -53 -123 -113 -250 -18 -38 -48 -101 -66 -140 -18 -38 -33 -76 -33 -84 -1
-12 21 -15 124 -14 69 1 132 2 141 2 10 1 31 33 54 84 21 45 65 138 97 206 32
68 58 125 58 126 0 2 24 54 54 116 83 177 137 292 148 319 9 23 12 19 24 -40
13 -68 69 -363 79 -415 11 -63 16 -90 19 -92 3 -3 26 16 86 70 73 65 186 166
218 193 19 16 44 38 56 49 32 29 181 163 235 212 25 23 47 40 49 38 2 -1 -10
-31 -26 -66 -16 -35 -35 -79 -43 -96 -8 -18 -17 -33 -21 -33 -5 0 -8 -6 -8
-14 0 -13 -78 -188 -101 -226 -5 -8 -12 -22 -15 -30 -3 -8 -14 -32 -25 -53
-10 -22 -19 -45 -19 -53 0 -8 -4 -14 -10 -14 -5 0 -10 -6 -10 -12 0 -7 -15
-44 -34 -83 -44 -92 -86 -183 -86 -188 0 -5 288 -3 293 3 9 10 87 180 87 190
0 5 5 10 10 10 6 0 10 8 10 18 0 9 7 26 15 36 8 11 15 27 15 37 0 9 7 22 15
29 8 6 14 15 13 18 -1 4 11 34 26 67 30 63 72 154 126 270 80 174 94 204 125
270 73 154 95 205 95 213 0 4 5 13 11 19 10 10 28 49 69 151 l10 22 -160 -1
-160 0 -38 -37 c-22 -20 -83 -77 -137 -127 -54 -49 -113 -103 -131 -120 -52
-48 -224 -207 -268 -247 -46 -43 -50 -40 -60 48 -3 27 -8 58 -10 69 -2 11 -7
40 -10 65 -3 25 -8 54 -10 65 -2 12 -8 48 -12 80 -4 33 -8 62 -9 65 -3 12 -19
116 -19 125 -1 6 -64 11 -162 13 l-161 2 -41 -87z"/>
<path d="M7679 5762 c-17 -37 -46 -99 -65 -139 l-33 -71 201 -1 c110 0 202 -2
205 -4 2 -2 -15 -44 -39 -93 -23 -49 -43 -91 -43 -94 -2 -5 -23 -51 -107 -230
-22 -47 -67 -143 -100 -215 -33 -71 -72 -157 -88 -190 -56 -119 -90 -196 -90
-204 0 -5 -7 -14 -15 -21 -9 -7 -13 -16 -9 -19 11 -12 283 -9 292 3 5 6 46 92
92 191 46 99 102 221 125 270 24 50 43 93 44 97 1 4 29 65 63 135 119 252 145
308 158 341 14 36 -14 33 277 33 l151 0 22 47 c13 26 38 81 57 122 18 41 38
83 43 92 9 16 -23 17 -550 17 l-560 0 -31 -67z"/>
<path d="M3496 4170 c-7 -8 -41 -78 -76 -155 -35 -77 -87 -189 -116 -250 -28
-60 -62 -132 -74 -160 -13 -27 -41 -88 -62 -135 -22 -47 -53 -112 -68 -145
-15 -33 -53 -113 -84 -179 -31 -65 -56 -122 -56 -127 0 -5 271 -9 644 -9 641
0 645 0 651 21 4 11 30 70 60 132 29 62 81 173 115 247 229 494 271 585 321
688 20 42 35 78 34 80 -2 2 -289 4 -640 5 -555 2 -638 0 -649 -13z m569 -149
c-2 -5 -37 -28 -77 -52 -40 -24 -80 -48 -89 -54 -9 -5 -34 -20 -55 -33 -22
-12 -52 -31 -69 -42 -16 -11 -37 -23 -45 -27 -8 -4 -45 -26 -82 -50 -36 -24
-71 -43 -76 -43 -6 0 -12 -3 -14 -8 -1 -4 -43 -31 -91 -59 -48 -29 -86 -49
-84 -45 36 76 61 130 88 187 17 39 49 106 69 151 l38 81 246 1 c136 0 244 -3
241 -7z m495 -1 c0 -8 -21 -55 -110 -245 -18 -38 -32 -72 -32 -75 0 -3 -7 -13
-15 -22 -9 -10 -13 -18 -10 -18 3 0 -7 -27 -24 -59 -16 -33 -29 -65 -29 -70 0
-6 -5 -11 -12 -11 -6 0 -9 -3 -5 -6 3 -3 -5 -27 -18 -52 -27 -55 -94 -199
-120 -259 -14 -32 -24 -42 -47 -45 -16 -3 -31 -1 -34 4 -3 5 -10 5 -16 2 -8
-5 -289 -8 -408 -5 -22 1 -19 5 25 34 28 17 52 35 53 40 2 4 7 5 12 2 5 -3 14
1 22 8 10 10 208 135 303 190 11 7 22 15 25 18 3 3 10 8 15 10 23 9 225 134
225 140 0 5 -74 119 -236 365 -19 28 -34 54 -34 57 0 3 106 5 235 6 130 0 235
-4 235 -9z m-1083 -572 c48 -79 89 -149 91 -155 2 -7 8 -13 13 -13 5 0 9 -4 9
-9 0 -6 14 -30 30 -54 39 -58 38 -66 -7 -60 -21 2 -45 4 -53 4 -95 -4 -311 -1
-320 4 -5 3 -10 2 -10 -3 0 -5 -11 -7 -25 -4 -14 2 -25 8 -25 12 0 4 18 44 40
89 22 45 40 84 40 87 0 2 24 54 54 114 30 61 52 110 50 110 -3 0 -2 5 1 10 3
6 10 10 15 10 4 0 48 -64 97 -142z"/>
<path d="M5300 3884 c-104 -17 -238 -70 -278 -110 -7 -8 -23 -19 -34 -25 -68
-36 -228 -218 -228 -258 0 -6 -5 -11 -10 -11 -6 0 -9 -3 -8 -7 1 -5 -6 -26
-16 -48 -81 -180 -35 -339 113 -396 104 -39 289 -16 431 55 103 51 110 57 140
121 42 90 100 216 118 255 8 19 17 38 18 41 2 4 -78 6 -177 5 l-181 -1 -28
-62 c-33 -73 -45 -65 98 -65 45 1 82 -1 82 -4 0 -3 -7 -21 -17 -42 -9 -20 -17
-39 -18 -42 -1 -3 -8 -20 -15 -38 -14 -37 -63 -64 -157 -85 -150 -35 -260 12
-279 119 -7 36 11 117 38 174 22 44 98 144 128 166 8 7 26 22 40 34 14 13 57
38 96 57 72 34 155 45 228 30 32 -7 106 -55 106 -68 0 -18 23 -8 83 38 34 25
65 49 70 53 14 12 -54 71 -107 94 -28 13 -73 24 -100 25 -28 1 -52 3 -55 5 -3
2 -40 -3 -81 -10z"/>
<path d="M9484 3865 c-17 -19 -333 -370 -424 -469 -25 -28 -57 -64 -72 -80
-15 -17 -42 -47 -60 -67 -18 -20 -64 -71 -103 -114 -38 -43 -76 -84 -83 -91
-17 -18 -7 -20 71 -19 75 2 57 -12 201 150 l49 55 199 0 c151 0 198 -3 199
-12 3 -30 -3 -155 -7 -170 -6 -19 -2 -20 94 -21 29 0 56 3 59 7 4 4 8 41 9 84
4 164 16 601 18 680 2 45 1 82 -3 83 -3 1 -34 2 -68 3 -52 2 -65 -1 -79 -19z
m-2 -232 c-1 -32 -4 -101 -6 -153 -2 -52 -4 -100 -5 -106 -1 -11 -281 -15
-281 -5 0 4 17 25 38 47 33 37 80 90 207 232 21 23 41 42 44 42 4 0 5 -26 3
-57z"/>
<path d="M11230 3882 c-7 -3 -27 -21 -45 -41 -18 -20 -44 -48 -56 -62 -13 -14
-58 -63 -99 -109 -41 -46 -86 -95 -99 -109 -13 -14 -46 -52 -75 -85 -28 -32
-71 -80 -96 -106 -25 -26 -60 -65 -79 -87 -18 -21 -66 -74 -106 -118 -40 -44
-84 -94 -98 -111 l-26 -30 77 2 c75 2 77 2 111 40 19 22 60 67 92 102 l57 62
200 0 200 0 -4 -100 c-3 -84 -2 -100 11 -101 8 -1 40 -1 70 -1 30 0 59 0 63 1
5 1 10 47 11 104 1 56 4 156 6 222 15 443 15 525 3 526 -45 4 -107 4 -118 1z
m-29 -239 c-1 -21 -3 -81 -5 -133 -2 -52 -4 -107 -5 -121 l-1 -26 -140 1 c-77
0 -140 3 -140 7 0 3 12 19 26 35 15 16 50 54 78 85 28 30 80 88 115 127 35 40
66 70 69 68 2 -3 4 -22 3 -43z"/>
<path d="M5712 3838 c15 -65 18 -80 22 -113 2 -16 11 -64 20 -105 8 -41 17
-86 19 -100 3 -14 10 -58 18 -99 10 -58 10 -76 1 -79 -7 -2 -12 -11 -12 -21 0
-9 -6 -25 -14 -36 -7 -11 -14 -22 -14 -25 0 -3 -19 -45 -42 -95 -58 -125 -61
-133 -47 -137 10 -4 52 -3 130 1 10 1 21 11 26 24 5 12 27 60 48 107 22 47 52
113 67 147 27 59 36 69 170 186 12 10 39 35 61 55 22 20 61 55 86 77 60 54
179 160 237 213 l47 42 -87 0 -87 0 -61 -57 c-34 -31 -70 -64 -79 -73 -49 -43
-169 -150 -215 -192 -28 -26 -53 -48 -56 -48 -5 0 -62 327 -63 358 0 9 -26 12
-93 12 l-92 0 10 -42z"/>
<path d="M6562 3872 c-7 -2 -12 -9 -12 -16 0 -7 -15 -44 -34 -82 -18 -38 -43
-91 -56 -119 -12 -27 -44 -95 -70 -150 -26 -55 -57 -120 -68 -145 -11 -25 -39
-85 -62 -135 -74 -158 -90 -194 -90 -198 0 -3 34 -5 75 -5 64 0 75 3 80 19 4
10 32 72 63 136 31 65 57 120 57 123 1 3 19 43 41 90 23 47 41 88 42 93 1 7
26 58 44 87 5 8 11 23 14 33 4 9 11 17 17 17 6 0 8 -2 5 -6 -3 -3 -2 -22 3
-42 5 -20 11 -53 15 -72 3 -19 7 -43 10 -52 3 -10 7 -30 10 -45 3 -16 7 -39
10 -53 3 -14 8 -42 11 -63 7 -43 18 -54 37 -35 7 7 39 36 70 63 32 28 72 63
89 78 18 16 59 52 91 80 33 29 82 73 110 99 53 50 73 60 58 31 -13 -25 -85
-178 -112 -238 -13 -27 -49 -106 -82 -175 -79 -166 -79 -164 0 -165 35 0 68 2
73 5 8 6 83 158 84 172 0 4 6 13 13 20 6 6 12 17 12 23 0 6 13 38 29 71 15 32
43 91 61 129 18 39 49 106 70 150 61 131 90 195 90 202 0 4 6 14 14 22 8 9 16
25 18 36 3 18 -3 20 -67 21 -71 1 -98 -6 -125 -35 -8 -9 -58 -55 -110 -101
-102 -90 -153 -137 -234 -212 -28 -26 -54 -48 -57 -48 -3 0 -13 46 -23 103 -9
56 -19 116 -22 132 -3 17 -7 41 -10 55 -3 14 -8 42 -11 63 -3 20 -8 38 -12 38
-17 4 -149 5 -159 1z"/>
<path d="M7530 3855 c-4 -11 -26 -60 -49 -108 -23 -49 -41 -92 -41 -98 0 -5
-4 -9 -10 -9 -5 0 -10 -8 -10 -17 0 -10 -7 -27 -15 -37 -8 -11 -15 -28 -15
-38 0 -10 -4 -18 -10 -18 -5 0 -10 -4 -10 -9 0 -9 -30 -77 -105 -236 -106
-227 -115 -249 -105 -255 9 -6 54 -6 126 -1 6 1 21 22 32 49 72 167 88 192
148 236 32 23 78 54 100 69 l41 25 22 -76 c12 -42 28 -97 35 -122 8 -25 22
-75 32 -112 10 -38 23 -68 29 -69 5 -1 45 -2 88 -2 84 -2 87 0 68 59 -23 72
-72 235 -76 251 -2 10 -14 52 -27 93 -18 54 -21 79 -14 86 15 13 117 87 137
99 31 19 74 50 93 67 11 10 25 18 32 18 7 0 14 4 16 8 2 4 32 28 68 52 36 25
67 47 70 50 3 3 22 16 42 30 21 14 38 28 38 31 0 3 -39 5 -87 4 l-88 -1 -295
-211 c-162 -116 -296 -210 -297 -209 -1 1 12 31 30 66 18 36 48 99 67 140 18
41 48 105 66 143 18 37 29 68 26 68 -4 1 -38 2 -76 3 -60 1 -69 -1 -76 -19z"/>
<path d="M8377 3867 c-8 -7 -51 -91 -95 -187 -44 -96 -108 -233 -141 -303 -34
-71 -61 -130 -61 -133 0 -2 -20 -44 -44 -94 -67 -135 -68 -126 15 -124 59 1
74 5 82 20 6 11 45 91 87 178 l75 159 198 1 c213 1 211 2 183 -52 -8 -15 -43
-88 -79 -162 -71 -148 -71 -147 11 -144 79 3 82 4 82 14 0 5 23 58 51 117 28
60 63 133 76 163 37 80 122 263 204 438 27 57 49 106 49 110 0 4 -32 7 -71 7
l-70 0 -55 -115 c-30 -63 -67 -142 -83 -175 l-28 -60 -202 0 c-133 0 -200 3
-197 10 2 5 36 78 74 160 39 83 72 156 74 164 4 18 -114 25 -135 8z"/>
<path d="M10011 3776 c-72 -150 -91 -194 -91 -205 0 -6 -4 -11 -10 -11 -5 0
-10 -6 -10 -13 0 -6 -16 -46 -36 -87 -20 -41 -46 -97 -59 -125 -83 -178 -127
-272 -135 -287 -5 -9 -6 -18 -2 -20 7 -3 71 -3 118 1 16 1 30 21 59 84 21 45
63 133 92 196 29 62 53 115 53 117 0 6 92 194 95 194 4 0 38 -98 41 -117 1 -7
12 -43 24 -80 12 -38 23 -72 25 -78 1 -5 4 -17 7 -25 10 -26 70 -219 72 -232
2 -7 8 -25 13 -39 10 -23 15 -25 69 -23 47 2 61 6 75 25 10 13 19 30 19 37 0
7 4 20 10 30 10 17 93 194 148 313 17 35 49 105 72 154 23 50 51 110 62 135
11 25 31 67 44 93 13 27 24 52 24 56 0 4 -32 7 -71 7 l-72 -1 -47 -100 c-47
-100 -80 -169 -148 -320 -20 -44 -46 -100 -57 -123 l-21 -44 -58 189 c-31 103
-72 235 -89 293 l-32 105 -68 1 -69 1 -47 -101z"/>
</g>
</svg>
